<svg xmlns="http://www.w3.org/2000/svg" xmlns:xlink="http://www.w3.org/1999/xlink" width="631.8565673828125" height="76.6168212890625" viewBox="0 0 631.8565673828125 76.6168212890625" fill="none">
<g >
<path     fill="#FFFFFF"  d="M58.6523 71.5438Q56.6719 70.5535 55.377 68.8777Q54.1582 67.3543 53.2441 65.6024Q52.4062 64.0027 51.5684 62.327Q50.8066 60.7274 49.8164 59.1277L49.7402 58.9754L49.6641 58.8231Q49.0547 56.9188 48.3691 54.8621Q47.5312 52.7293 46.998 50.5965Q46.4648 48.5399 45.9316 46.407Q45.3984 44.1981 45.0938 41.9891L45.0176 41.6082L46.3125 39.2469L46.541 39.0184Q47.2266 38.5613 47.9883 38.4852Q48.5977 38.409 49.2832 38.409L49.5117 38.409L49.7402 38.409Q50.4258 38.7137 51.1113 39.3992Q51.7969 40.0848 52.1016 40.7703L52.1016 40.9227L52.1016 41.075Q52.5586 44.2742 53.4727 47.3973Q54.4629 50.5965 55.5293 53.7195Q56.6719 56.8426 58.1953 59.7371Q59.7949 62.6317 61.7754 65.2977L63.375 66.9734L63.375 69.1063L63.2988 69.3348Q62.9941 70.0203 62.3086 70.7059Q61.623 71.3914 60.9375 71.6961L60.709 71.7723L58.957 71.7723L58.6523 71.5438ZM19.957 68.9539Q19.1191 68.8016 18.4336 68.6492Q17.5957 68.4969 16.7578 67.9637Q15.7676 67.4305 15.1582 66.5926Q14.5488 65.7547 14.3203 64.6883Q14.168 63.8504 14.168 62.9363L14.168 62.784L14.168 62.5555Q15.3105 58.4422 17.748 54.9383Q20.0332 51.5867 22.4707 48.3875Q24.9082 45.2645 27.4219 42.0652Q29.0215 40.0848 30.5449 38.1805Q27.8789 38.7899 25.2891 39.8563Q21.6328 41.3797 17.9004 42.827Q14.3203 44.2742 10.7402 46.0262Q7.00781 47.7781 3.27539 48.9207L2.89453 48.9969L2.4375 48.9207Q1.75195 48.616 1.06641 47.9305Q0.380859 47.2449 0.0761719 46.5594L0 46.3309L0 44.5789L0.152344 44.3504Q0.761719 42.827 2.13281 42.1414Q3.04688 41.6844 3.88477 41.3035Q4.72266 40.7703 5.63672 40.3133L5.71289 40.3133Q8.91211 38.9422 12.1875 37.5711Q15.3867 36.2 18.5098 34.8289Q21.709 33.4578 24.9844 32.2391Q28.4121 31.0965 32.0684 30.7918L32.1445 30.7918L37.1719 30.7918L39.7617 32.5438L40.5234 33.8387L40.5234 36.2L40.4473 36.5047Q38.4668 40.3133 35.4961 43.5125Q32.6016 46.4832 30.1641 49.8348Q27.6504 53.1102 25.2129 56.4617Q23.3848 58.8992 22.0898 61.7938Q24.2988 61.3367 26.4316 60.575Q29.0215 59.5848 31.6875 58.5945Q34.4297 57.5281 37.1719 56.7664Q39.9902 55.9285 42.8086 55.4715L42.9609 55.4715L45.3984 55.4715L45.627 55.4715Q46.3125 55.7762 46.998 56.4617Q47.6836 57.1473 47.9883 57.8328L47.9883 58.0613L47.9883 60.0418L47.9121 60.3465Q47.4551 61.1082 46.9219 61.6414Q46.3887 62.1746 45.627 62.6317L45.3223 62.784L43.4941 62.784L43.0371 62.6317Q40.2949 63.241 37.7051 64.0789Q34.9629 64.9168 32.2207 65.9832Q29.4785 67.1258 26.5078 67.9637Q23.4609 68.8016 20.2617 68.9539L20.1094 69.0301L19.957 68.9539ZM41.8945 22.4129Q38.8477 21.4988 35.8008 20.5848Q32.7539 19.7469 29.7832 18.6043Q26.8887 17.5379 23.8418 16.3192Q20.8711 15.1004 17.9766 13.8817L17.5957 13.7293L17.3672 13.4246Q16.9102 12.7391 16.834 11.9774Q16.7578 11.368 16.7578 10.6824L16.7578 10.4539L16.7578 10.2254Q17.0625 9.53986 17.748 8.85431Q18.4336 8.16876 19.1191 7.86407L19.3477 7.7879L21.4805 7.7879L21.6328 7.86407Q24.6035 8.85431 27.5742 10.0731Q30.3926 11.2918 33.2871 12.3582Q36.1055 13.3484 39.0762 14.034Q42.2754 14.7195 45.1699 16.1668L45.3223 16.3192L45.4746 16.4715Q46.3125 17.3094 46.3125 18.3758L46.3125 19.6707L46.3125 19.8992Q46.084 20.7371 45.3223 21.4227Q44.6367 22.1082 43.9512 22.4129L43.7227 22.4129L42.0469 22.4129L41.8945 22.4129ZM115.553 75.657Q114.867 75.3524 114.182 74.6668Q113.496 73.9813 113.191 73.2957L113.191 73.0672L113.191 71.0867L113.191 70.8582Q113.648 69.5633 113.953 68.2684Q114.258 66.9734 114.41 65.5262Q114.562 64.0027 114.791 62.4793Q115.02 61.1082 115.324 59.7371L115.324 56.9949L115.477 56.8426L115.477 54.5574L115.629 54.4051L115.629 51.8152L115.781 51.6629L115.781 46.0262L115.934 45.8738L115.934 37.0379L116.086 36.8856L116.086 27.1356L115.934 26.9832L115.934 23.6317L110.754 23.6317L110.602 23.784L109.078 23.784Q108.316 27.2879 107.174 30.7156Q105.879 34.4481 104.66 38.2567Q103.441 42.0652 102.527 45.8738Q101.613 49.6063 101.004 53.491L101.004 56.0809L100.852 56.2332L100.852 58.2137L100.699 58.366L100.699 61.9461L100.699 62.1746Q100.395 62.8602 99.709 63.5457Q99.0234 64.2313 98.3379 64.5359L98.1094 64.6121L96.4336 64.6121L96.2051 64.5359Q95.5195 64.2313 94.834 63.5457Q94.1484 62.8602 93.8438 62.1746L93.8438 62.0984L93.6914 61.2606L93.6914 57.2996L93.8438 57.1473L93.8438 55.1668L93.9961 55.0145L93.9961 53.3387L93.9961 53.1863Q94.6055 49.3777 95.3672 45.493Q96.1289 41.532 97.2715 37.7234Q98.4141 33.991 99.709 30.1824Q100.775 27.2879 101.537 24.241L100.928 24.241L97.4238 24.8504L96.2812 24.8504L96.1289 25.0027L94.1484 25.0027L86.1504 26.2215L84.5508 26.2215L82.875 26.6785L79.8281 26.6785L77.543 25.4598L77.3145 25.2313Q76.8574 24.5457 76.7812 23.784Q76.6289 23.1746 76.6289 22.4891L76.6289 22.2606L76.7051 22.032Q77.0098 21.3465 77.6953 20.6609Q78.3809 19.9754 79.0664 19.6707L79.2949 19.6707L82.5703 19.6707L84.2461 19.2137L85.998 19.2137Q86.8359 19.0613 87.75 18.909Q88.6641 18.7567 89.6543 18.5281Q90.7969 18.2234 92.0156 18.1473Q93.0059 18.0711 93.8438 17.9188L93.9961 17.8426L95.0625 17.8426L95.2148 17.6902L97.1191 17.6902L100.623 17.0809L101.918 17.0809L102.07 16.9285L103.746 16.9285L103.898 16.7762L107.707 16.7762L107.859 16.6238L109.535 16.6238L109.688 16.4715L115.324 16.4715L115.477 16.3192L132.615 16.3192L132.768 16.4715L134.9 16.4715L135.053 16.6238L136.576 16.6238L136.805 16.7Q137.566 17.0047 138.48 17.157L140.613 17.4617Q142.213 17.6902 143.279 18.8328L143.355 18.909L143.432 18.9852Q143.889 19.6707 143.965 20.4324Q144.117 21.0418 144.117 21.7274L144.117 21.9559L144.041 22.1844Q143.736 22.8699 143.051 23.5555Q142.365 24.241 141.68 24.5457L141.451 24.5457L139.547 24.5457L136.195 23.784L133.986 23.784L133.834 23.6317L131.701 23.6317L131.549 23.4793L122.941 23.4793L122.941 25.9168L123.094 26.0692L123.094 37.952L122.941 38.1043L122.941 46.9402L122.789 47.0926L122.789 52.7293L122.637 52.8817L122.637 55.4715L122.484 55.6238L122.484 57.909L122.332 58.0613L122.332 59.9656L121.266 66.2117L121.266 67.7352L121.266 67.8113Q121.113 69.0301 120.809 70.1727Q120.504 71.1629 120.352 72.1531Q120.123 73.8289 118.828 74.8953L118.752 74.9715L118.752 75.0477Q118.066 75.5047 117.305 75.5809Q116.695 75.7332 116.01 75.7332L115.781 75.7332L115.553 75.657ZM81.0469 56.6902Q80.3613 56.3856 79.6758 55.7Q78.9902 55.0145 78.6855 54.3289L78.6094 54.1004L78.6094 52.1199L78.6855 51.8914Q79.5996 49.1492 80.666 46.4832Q81.6562 43.741 82.7988 41.1512Q83.9414 38.5613 85.0078 35.9715Q86.1504 33.1531 88.5117 30.868L88.5879 30.7156L89.502 30.1824L91.7109 30.1824L91.9395 30.1824Q92.625 30.4871 93.3105 31.1727Q93.9961 31.8582 94.3008 32.5438L94.3008 32.7723L94.3008 34.6766L94.0723 35.0574Q92.3203 37.1902 91.3301 39.7039Q90.1875 42.3699 88.9688 44.9598Q87.75 47.5496 86.9121 50.2156Q85.9219 53.034 84.7031 55.5477L84.5508 55.8524L84.2461 56.0809Q83.5605 56.5379 82.7988 56.6141Q82.1895 56.6902 81.5039 56.6902L81.2754 56.6902L81.0469 56.6902ZM138.1 54.6336Q135.891 52.8817 134.596 50.4442Q133.529 48.3113 132.234 46.1785Q130.939 44.0457 129.568 42.0272Q128.197 40.0086 126.674 38.1043L126.445 37.7234L126.445 35.8192L126.445 35.5906Q126.75 34.9051 127.436 34.2195Q128.121 33.534 128.807 33.2293L129.035 33.2293L131.168 33.2293L131.549 33.4578Q133.682 35.1336 135.129 37.4949Q136.424 39.6277 137.795 41.6082Q139.166 43.741 140.309 45.95Q141.451 48.0067 142.822 50.1395L143.051 50.4442L143.051 52.2723L142.975 52.5008Q142.67 53.1863 141.984 53.8719Q141.299 54.5574 140.613 54.8621L140.385 54.8621L138.48 54.8621L138.1 54.6336ZM114.258 14.491Q112.963 13.8817 111.439 13.5008Q109.84 13.0438 108.393 12.6629Q106.793 12.282 105.346 11.825Q103.518 11.2156 102.07 9.61603L101.994 9.53986L101.918 9.46368Q101.461 8.77814 101.385 8.01642Q101.309 7.40704 101.309 6.7215L101.309 6.49298L101.309 6.26447Q101.613 5.57892 102.299 4.89337Q102.984 4.20782 103.67 3.90314L103.898 3.82697L105.803 3.82697L106.184 4.13165Q107.326 5.04572 108.545 5.3504Q110.145 5.73126 111.744 6.18829Q113.344 6.64532 114.791 7.02618Q116.619 7.48322 118.219 8.70197L118.371 8.85431L118.523 9.00665Q118.98 9.6922 119.057 10.4539Q119.133 11.0633 119.133 11.7488L119.133 11.9774L119.133 12.2059Q118.828 12.8914 118.143 13.577Q117.457 14.2625 116.771 14.5672L116.543 14.6434L114.486 14.6434L114.258 14.491ZM180.68 48.0067Q181.213 47.6258 181.746 47.3211Q183.27 46.6356 184.564 45.7977Q185.783 45.0359 186.926 44.0457L184.412 44.3504L182.279 44.3504L181.746 44.3504Q181.137 46.1785 180.68 48.0067ZM179.385 53.8719Q179.232 54.7098 179.004 55.5477Q178.318 58.5945 177.938 61.7938Q177.557 65.2215 176.262 68.3445L176.109 68.7254L175.805 68.9539Q175.119 69.4109 174.357 69.4871Q173.748 69.6395 173.062 69.6395L172.834 69.6395L172.605 69.5633Q171.92 69.2586 171.234 68.5731Q170.549 67.8875 170.244 67.202L170.168 66.9734L170.168 65.2977L170.244 65.1453Q171.006 60.4227 171.844 55.6238Q172.682 50.6727 173.977 45.95Q175.271 41.3035 176.643 36.657Q178.09 31.8582 180.756 27.6688L180.832 27.5926L180.984 27.5164Q181.822 26.6785 182.889 26.6785L184.564 26.6785L186.088 28.0496L186.697 28.0496Q187.459 27.8973 188.297 27.6688L190.125 27.2117Q191.115 26.9832 192.105 26.8309Q193.096 26.6785 194.01 26.5262L194.162 26.5262L195.686 26.5262L195.838 26.3738L200.104 26.3738L200.18 26.3738Q201.398 26.5262 202.541 26.9832Q203.76 27.4402 204.75 28.202Q205.664 28.9637 206.578 29.9539L206.654 30.0301L206.73 30.1824Q207.264 31.0203 207.606 32.0106Q207.949 33.0008 208.102 33.991L208.102 34.1434L208.102 39.9324L207.492 43.8934L207.492 46.6356L207.34 46.7879L207.34 53.6434L207.492 53.7957L207.492 56.2332L207.645 56.3856L207.645 58.7469L207.797 58.8992L207.797 67.4305L207.797 67.5828Q207.645 68.4207 207.568 69.2586Q207.492 70.782 206.273 71.7723L206.197 71.8484L206.121 71.8484Q205.359 72.3055 204.674 72.3817Q204.064 72.534 203.379 72.534L203.15 72.534L202.922 72.4578Q202.236 72.1531 201.551 71.4676Q200.865 70.782 200.561 70.0965L200.484 69.868L200.484 66.9734L200.637 66.8211L200.637 59.9656L200.484 59.8133L200.484 57.452L200.332 57.2996L200.332 54.8621L200.18 54.7098L200.18 54.1766Q200.18 54.1766 199.837 54.2908Q199.494 54.4051 199.266 54.4813L199.037 54.5574L192.029 54.5574L191.877 54.7098L188.221 54.7098L183.803 55.3192L181.822 55.3192L179.537 54.0242L179.385 53.8719ZM159.275 50.2918Q158.59 49.9871 157.904 49.3016Q157.219 48.616 156.914 47.9305L156.914 47.702L156.914 45.7977L156.99 45.493Q158.742 42.1414 160.57 38.7899Q162.398 35.5145 164.531 32.3914Q166.588 29.4207 168.34 26.2215Q169.406 24.0887 170.625 21.9559Q169.787 22.1844 168.949 22.3367Q167.197 22.7176 165.445 23.1746Q163.77 23.6317 162.094 24.0887Q160.266 24.5457 158.285 24.6981L157.904 24.7742L155.619 23.4793L155.391 23.2508Q154.934 22.5652 154.857 21.8035Q154.781 21.1942 154.781 20.5086L154.781 20.2801L154.781 20.0516Q155.086 19.366 155.771 18.6805Q156.457 17.9949 157.143 17.6902L157.295 17.6902L157.371 17.6902Q159.809 17.2332 162.208 16.7Q164.607 16.1668 166.969 15.5574Q169.406 14.9481 171.92 14.3387Q174.129 13.8817 176.109 13.1961Q176.947 11.9012 177.785 10.5301Q178.775 8.93048 179.613 7.44513Q180.451 5.95978 181.213 4.284Q182.203 2.30353 184.031 1.08478L184.336 0.78009L186.24 0.78009L186.469 0.856262Q187.154 1.16095 187.84 1.8465Q188.525 2.53204 188.83 3.21759L188.906 3.44611L188.906 5.42657L187.459 7.86407Q186.85 8.85431 186.393 9.92072Q185.859 10.9871 185.174 12.0535L189.287 11.4442L190.963 11.4442L191.115 11.2918L193.096 11.2918L193.248 11.1395L195.076 11.1395L195.229 10.9871L211.453 10.9871L211.605 11.1395L213.738 11.1395L213.891 11.2918L215.414 11.2918L215.643 11.4442Q216.252 11.6727 216.938 11.7488Q217.928 11.825 218.842 11.9774Q220.213 12.2059 221.127 13.3484L221.127 13.4246L221.203 13.4246Q221.66 14.1102 221.736 14.8719Q221.812 15.4813 221.812 16.243L221.812 16.4715L221.812 16.7Q221.508 17.3856 220.822 18.0711Q220.137 18.7567 219.451 19.0613L219.223 19.0613L217.318 19.0613L215.033 18.452L212.824 18.452L212.672 18.2996L210.539 18.2996L210.387 18.1473L196.295 18.1473L196.143 18.2996L194.314 18.2996L194.162 18.452L192.182 18.452L192.029 18.6043L189.516 18.6043Q188.221 18.909 186.926 18.9852Q185.707 19.0613 184.488 19.2899Q183.117 19.5184 181.746 19.5945Q180.984 19.6707 180.299 20.1277Q177.938 23.6317 175.881 27.2879Q173.748 31.2488 171.387 34.9051Q169.025 38.5613 166.969 42.3699Q164.836 46.407 162.018 49.8348L161.561 50.2918L159.504 50.2918L159.275 50.2918ZM200.18 47.6258L200.18 45.7215L200.332 45.5692L200.332 43.741L200.941 39.7801L200.941 34.6766Q200.789 34.3719 200.561 34.0672Q200.256 33.8387 199.951 33.6102L199.342 33.3817L196.904 33.3817L196.752 33.534L194.391 33.534L187.383 35.0574L185.326 35.0574L184.793 34.7527Q184.717 34.9813 184.717 35.1336Q184.336 36.0477 183.955 37.0379Q183.879 37.1141 183.879 37.3426L184.26 37.3426L191.877 36.4285L197.59 36.4285L197.895 36.5047Q198.656 36.9617 199.342 37.6473Q200.027 38.3328 200.484 39.0945L200.637 39.3992L200.637 41.7606L200.408 42.0652Q199.494 43.5887 197.971 44.5027Q196.828 45.2645 195.762 45.95Q194.771 46.6356 193.705 47.5496L200.104 47.5496L200.18 47.6258ZM287.701 73.7527Q286.178 73.0672 285.492 71.5438L285.34 71.3152L285.34 69.2586L285.416 69.0301Q287.854 62.2508 290.977 55.7Q293.947 49.5301 295.014 42.9793L294.252 41.3797Q292.348 40.2371 289.758 40.6942Q287.625 41.1512 285.721 41.7606Q283.588 42.3699 281.227 42.3699L281.15 42.3699L281.074 42.3699Q279.246 42.1414 278.18 40.618L278.104 40.5418L278.027 40.3895Q277.418 39.0184 277.646 37.4188L277.646 37.0379L277.951 36.7332Q281.303 32.6961 285.188 28.9637Q289.072 25.3074 292.729 21.8035L293.109 21.4988L295.166 21.4988L295.395 21.575Q296.918 22.2606 297.604 23.784L297.68 24.0125L297.68 26.0692L297.527 26.45Q295.547 29.3445 292.805 31.6297Q291.738 32.6199 290.596 33.6863Q292.119 33.6102 293.719 33.6863L293.795 33.6863Q297.375 33.991 299.812 36.8856Q301.412 38.7899 301.869 41.2274Q302.326 43.4363 302.098 45.8738L302.098 46.0262L302.098 46.1785Q300.041 52.9578 297.07 59.5848Q294.1 66.0594 291.51 72.534L291.434 72.9149L291.129 73.1434Q289.91 74.0574 288.082 73.8289L287.854 73.8289L287.701 73.7527ZM259.975 67.8113Q258.451 67.1258 257.766 65.6024L257.689 65.3738L256.395 44.9598L256.395 38.6375L249.844 39.5516L249.539 43.4363L249.539 52.9578Q250.148 55.9285 250.605 58.8992L250.682 59.2801L250.529 59.6609Q249.844 61.1844 248.32 61.8699L248.092 62.0223L246.111 62.0223L243.826 60.1942L243.75 59.7371Q242.988 56.6141 242.531 53.2625L242.531 53.1863L242.531 43.284L242.684 40.3895Q240.551 40.7703 238.494 41.1512Q235.98 41.6082 233.391 42.0652L233.01 42.1414L232.629 41.9891Q231.105 41.3035 230.42 39.7801L230.344 39.5516L230.344 37.4949L232.4 35.1336L232.781 35.0574Q235.676 34.2957 238.723 33.991Q241.084 33.6863 243.445 33.2293Q243.598 31.2488 243.902 29.4207Q244.207 26.7547 245.807 24.4695L245.959 24.241L246.111 24.0887Q247.482 23.2508 249.311 23.4793L249.463 23.4793L249.615 23.5555Q251.291 24.1649 251.977 25.7645L252.129 25.993L252.129 27.8973L251.9 28.202Q250.682 30.1063 250.529 32.3914L256.166 31.7059Q256.014 28.2781 257.309 25.3074L257.461 25.0027L257.689 24.7742Q258.908 23.8602 260.66 24.0887L260.889 24.0887L261.041 24.1649Q262.564 24.8504 263.25 26.3738L263.402 26.6024L263.402 31.0203L268.658 30.4109L268.963 30.5633Q270.486 31.2488 271.172 32.7723L271.324 33.0008L271.324 35.0574L269.268 37.3426L263.555 38.0281L263.555 44.8074Q263.783 49.6824 264.164 54.7098Q264.621 59.8133 264.621 65.0692L264.621 65.3738L264.469 65.6024Q263.783 67.1258 262.26 67.8113L262.031 67.9637L260.203 67.9637L259.975 67.8113ZM238.57 24.1649Q237.047 23.4793 236.361 21.9559L236.285 21.7274L236.285 19.8231L237.352 17.9188L237.885 17.8426Q244.512 16.4715 251.367 15.7098Q258.07 14.9481 265.002 14.491L265.307 14.4149L265.611 14.5672Q267.135 15.2527 267.82 16.7762L267.973 17.0047L267.973 19.1375L267.82 19.366Q267.135 20.8895 265.611 21.575L265.383 21.6512L263.783 21.6512L262.793 21.575Q256.852 22.1844 251.139 22.7938Q245.197 23.4793 239.256 24.241L238.875 24.3172L238.57 24.1649ZM274.752 19.8992Q273.229 19.2137 272.543 17.6902L272.391 17.4617L272.391 15.4051L272.848 15.0242Q276.885 10.8348 281.836 8.01642Q286.635 5.27423 291.357 2.07501L291.738 1.8465L293.643 1.8465L293.871 1.99884Q295.395 2.68439 296.08 4.20782L296.156 4.43634L296.156 6.7215L295.699 7.10236Q291.357 10.8348 286.406 13.6531Q281.684 16.3192 277.342 19.7469L276.961 19.9754L274.98 19.9754L274.752 19.8992ZM381.278 22.6414Q379.755 21.9559 379.069 20.4324L378.993 20.2039L378.993 18.1473L379.679 16.3953Q377.622 16.9285 375.794 17.3094Q372.747 17.9949 369.396 17.7664Q366.501 17.6141 364.597 14.9481Q363.454 13.4246 363.454 11.4442L363.454 11.368L363.454 11.2918Q363.759 8.16876 365.663 5.65509Q367.415 3.36993 369.472 1.38947Q371.147 -0.362488 373.661 0.0945435L373.813 0.0945435L373.966 0.170715Q375.489 0.856262 376.175 2.3797L376.251 2.60822L376.251 4.74103L375.794 5.19806Q374.194 6.49298 372.671 8.16876Q371.604 9.31134 370.919 10.6824Q371.909 10.9109 373.052 10.7586Q376.479 9.99689 379.907 9.00665Q383.64 7.94025 387.677 7.94025L387.981 7.94025L388.21 8.09259Q389.733 8.77814 390.419 10.3016L390.571 10.5301L390.571 12.5106L388.972 14.6434L388.743 14.6434Q387.829 16.0906 387.144 17.6141Q386.229 19.8231 384.858 21.7274L384.782 21.8797L384.63 22.032Q383.411 22.9461 381.659 22.7176L381.431 22.7176L381.278 22.6414ZM372.442 34.2957L372.366 34.4481Q370.843 36.4285 368.71 37.8758Q368.634 37.8758 368.558 37.952L372.442 37.7996L372.442 35.743L372.442 34.2957ZM372.595 31.8582L372.671 28.7352L372.442 28.2781Q371.071 27.4402 369.319 27.4402L364.825 27.4402Q362.235 27.5926 359.874 27.9734Q357.894 28.2781 355.913 28.8113Q355.837 29.3445 355.761 29.8016Q358.96 29.4969 362.235 29.4207Q365.968 29.2684 369.624 29.2684L369.853 29.2684L370.081 29.3445Q371.909 29.9539 372.595 31.8582ZM357.284 45.1883Q355.989 44.5789 355.151 43.3602L355.075 43.284L354.999 43.1317Q354.39 41.7606 354.618 40.1609L354.618 39.7801L354.847 39.5516Q355.989 37.952 357.589 36.7332L353.247 37.1141Q352.562 39.3992 352.028 41.8367Q351.571 43.8934 351.419 46.0262Q354.313 45.493 357.284 45.1883ZM366.958 54.1766L367.034 51.6629L364.368 51.6629L360.407 51.9676L360.255 54.5574L361.778 54.5574L366.958 54.1766ZM369.624 76.4949Q367.948 75.657 367.339 73.9051L367.263 73.8289L366.806 71.0106L366.806 63.5457L366.882 61.4129L365.282 61.4129L359.646 61.7176L359.265 69.7156Q359.798 71.5438 359.798 73.6004L359.798 73.9051L359.722 74.1336Q359.036 75.657 357.513 76.3426L357.284 76.4949L355.456 76.4949L355.151 76.3426Q353.552 75.5047 352.714 73.9051L352.638 73.6766L352.104 66.8973L352.485 62.1746Q347.61 62.4793 342.964 63.3934Q337.937 64.3836 332.909 65.1453L332.528 65.2215L332.147 65.0692Q330.624 64.3836 329.938 62.8602L329.786 62.6317L329.786 60.8035L329.938 60.575Q330.624 59.0516 332.147 58.366L332.3 58.2899L332.376 58.2899Q337.784 57.0711 343.192 56.157Q347.991 55.3953 353.019 54.9383L353.247 52.7293L349.438 53.4149L349.058 53.3387Q347.001 52.577 345.249 51.0535L345.097 50.9012L345.021 50.7488Q343.954 48.9969 344.259 46.7117Q344.716 40.4656 346.544 34.6766Q348.448 28.8875 350.733 23.1746L350.962 22.5652L351.724 22.4129Q352.104 22.3367 352.562 22.2606Q351.647 20.2039 350.81 17.9949Q348.448 19.8992 345.935 21.4227Q342.507 23.4793 338.165 23.4031Q335.347 23.327 333.519 21.0418L333.442 20.9656L333.366 20.9656Q332.224 19.2137 332.452 16.9285L332.452 16.9285Q333.062 12.282 336.185 8.62579Q339.003 5.19806 342.05 1.99884L342.126 1.92267L342.278 1.8465Q343.802 0.703918 345.935 1.16095L346.087 1.16095L346.239 1.23712Q347.763 1.92267 348.448 3.44611L348.524 3.67462L348.524 5.80743L348.067 6.18829Q345.782 8.09259 343.649 10.6063Q341.593 13.0438 340.146 15.4813L339.917 16.1668Q343.04 15.1766 345.63 12.9676Q348.677 10.3016 352.409 8.93048L353.019 8.77814L353.476 9.08282Q355.304 10.0731 356.065 11.825L356.065 11.9012Q356.827 13.9578 357.817 15.9383Q358.884 18.0711 359.341 20.5848Q359.417 20.7371 359.417 20.9656Q362.007 20.5086 364.673 20.4324L364.749 20.4324L371.071 20.4324L371.147 20.4324Q374.956 20.7371 377.698 23.5555Q379.603 25.3836 379.679 28.0496Q379.755 30.2586 379.755 32.5438L379.526 39.7801Q379.907 42.2938 380.364 44.6551Q380.821 47.1688 380.821 50.0633L380.821 50.368L380.745 50.5965Q380.06 52.1199 378.536 52.8055L378.308 52.8817L376.251 52.8817L374.88 51.6629L374.118 51.6629L374.118 54.1004L384.021 54.1004L384.097 54.1004Q387.22 54.4051 390.114 54.7859Q393.313 55.1668 396.132 56.9188L396.36 57.0711L396.513 57.2234Q397.427 58.4422 397.198 60.1942L397.198 60.4227L397.122 60.575Q396.437 62.0984 394.913 62.784L394.685 62.9363L392.247 62.9363L392.019 62.784Q390.19 61.9461 388.21 61.7176Q386.077 61.4891 383.868 61.2606L374.042 61.2606L373.813 63.6219L373.813 70.4774Q374.651 71.8484 374.423 73.4481L374.423 73.7527L373.204 75.7332L373.052 75.8856Q371.833 76.7996 370.081 76.5711L369.853 76.5711L369.624 76.4949ZM456.765 71.2391Q456.079 70.9344 455.394 70.2488Q454.708 69.5633 454.403 68.8777L454.403 68.6492L454.403 64.8406L454.556 64.6883L454.556 63.1649L454.708 63.0125L454.708 61.6414L454.708 61.4891Q455.165 58.366 455.774 55.1668Q456.384 51.8914 457.222 48.8445Q458.06 45.95 458.821 42.9031Q459.583 39.9324 460.345 36.8094L460.345 32.1629Q460.116 31.4012 459.812 30.7918Q459.431 30.0301 458.974 29.3445Q458.517 28.7352 457.907 28.0496Q456.46 27.1356 455.013 26.45Q453.337 25.6883 451.661 25.1551Q450.062 24.5457 448.233 24.241Q446.405 23.9363 444.653 23.6317L442.673 23.6317L442.521 23.4793L438.864 23.4793Q437.188 28.5067 435.284 33.4578Q433.38 38.7899 431.78 44.1219Q430.181 49.5301 428.733 55.0145Q427.21 60.6512 424.62 65.8309L424.392 66.1356L424.163 66.3641Q423.401 66.8211 422.64 66.8973Q422.03 67.0496 421.345 67.0496L421.116 67.0496L420.888 66.9734Q420.202 66.6688 419.517 65.9832Q418.831 65.2977 418.526 64.6121L418.45 64.3836L418.45 62.327L418.603 62.0984Q420.659 57.2234 422.106 52.1961Q423.478 47.0926 424.925 42.0652Q426.372 37.0379 428.276 32.0106Q429.8 27.8211 431.247 23.4793L429.724 23.4793L429.571 23.6317L427.286 23.6317L427.134 23.784L425.306 23.784L425.153 23.9363L423.63 23.9363L423.478 24.0887L419.06 24.0887L416.774 22.8699L416.546 22.6414Q416.089 21.9559 416.013 21.1942Q415.86 20.5848 415.86 19.8992L415.86 19.7469L415.937 19.5184Q416.165 18.6805 416.927 17.9949Q417.612 17.3094 418.298 17.0047L418.526 16.9285L422.411 16.9285L422.563 16.7762L424.087 16.7762L424.239 16.6238L426.067 16.6238L426.22 16.4715L428.505 16.4715L428.657 16.3192L433.761 16.3192Q434.142 15.1766 434.522 14.034L436.655 7.94025Q437.265 6.34064 438.103 4.89337L438.255 4.58868L438.483 4.36017Q439.169 3.90314 439.931 3.82697Q440.54 3.67462 441.226 3.67462L441.53 3.67462L441.835 3.82697Q442.597 4.284 443.13 4.8172Q443.663 5.3504 444.12 6.11212L444.196 6.41681L444.196 8.62579L441.454 16.3192L443.587 16.3192L443.739 16.4715L444.806 16.4715L444.882 16.5477Q447.396 16.8524 449.757 17.3094Q452.194 17.7664 454.708 18.6043Q457.146 19.4422 459.354 20.6609Q461.64 21.8797 463.696 23.784L463.772 23.8602L465.067 25.4598Q465.753 26.3738 466.286 27.4022Q466.819 28.4305 467.048 29.4969Q467.276 30.4109 467.429 31.4012L467.505 31.5535L467.505 37.0379L467.429 37.1141Q466.972 40.4656 466.134 43.5125Q465.296 46.407 464.534 49.5301Q463.772 52.6531 462.858 55.7762Q462.021 58.6707 461.716 61.7938L461.716 64.0789L461.563 64.2313L461.563 65.7547L461.411 65.907L461.411 67.9637L460.269 70.4012L459.964 70.6297Q459.278 71.0867 458.517 71.1629Q457.907 71.3152 457.222 71.3152L456.993 71.3152L456.765 71.2391ZM499.954 17.9949Q497.669 17.9949 496.222 16.243Q495.231 15.0242 495.46 13.2723L495.46 13.0438L495.536 12.8914Q496.222 11.368 497.745 10.6824L497.974 10.5301L499.802 10.5301L499.878 10.6063Q502.087 10.9871 504.448 10.9109Q512.294 9.6922 520.292 9.159Q528.29 8.62579 536.212 8.32111L536.517 8.24493L536.821 8.39728Q538.345 9.08282 539.03 10.6063L539.106 10.8348L539.106 12.8152L539.03 13.0438Q538.345 14.5672 536.821 15.2527L536.593 15.3289L536.288 15.3289Q528.442 15.4813 520.597 16.1668Q521.511 16.8524 521.968 17.9188L522.044 18.1473L522.044 19.8992L519.149 30.6395L519.226 30.6395Q521.435 30.1824 523.72 30.1824Q525.853 30.1824 527.985 30.0301L549.39 30.0301L549.618 30.1063Q551.446 30.7156 552.056 32.5438L552.208 32.7723L552.208 34.5242L552.056 34.7527Q551.37 36.2762 549.847 36.9617L549.618 37.0379L528.062 37.0379Q524.938 37.0379 521.968 37.3426Q519.302 37.6473 516.712 37.7996Q513.97 45.7215 511.685 53.7957Q509.323 62.1746 508.409 70.8582L508.562 72.4578L508.409 72.7625Q507.724 74.2859 506.2 74.9715L505.972 75.1238L504.144 75.1238L503.915 74.9715Q502.392 74.2859 501.706 72.7625L501.63 72.534L501.249 68.0399L501.325 67.8875Q502.544 59.8895 504.753 52.0438Q506.733 45.1121 508.942 38.3328Q504.753 38.9422 500.487 39.1707Q495.993 39.4754 491.728 40.3895L491.194 40.4656L489.519 39.5516L489.366 39.3231Q488.224 37.952 488.452 36.0477L488.452 35.743L489.442 33.991L490.052 33.8387Q495.46 32.4676 501.249 32.0106Q506.505 31.5535 511.532 31.1727Q512.599 27.8973 513.437 24.6219Q514.427 20.7371 515.874 16.9285Q515.874 16.7762 515.95 16.6238Q508.028 17.3856 500.03 17.9188L500.03 17.9949L499.954 17.9949ZM530.042 75.657Q526.995 75.3524 524.558 73.9051Q522.196 72.534 520.063 70.2488L519.987 70.1727L519.911 70.0203Q517.778 66.5926 517.245 62.4793Q516.636 58.5184 516.864 54.4051Q517.017 51.3582 517.245 48.3875Q517.474 45.1121 518.769 42.3699L518.921 41.9891L519.226 41.7606Q520.597 40.9227 522.272 41.1512L522.501 41.1512L522.653 41.2274Q524.177 41.9129 524.862 43.4363L524.938 43.6649L524.938 45.3406L524.938 45.493Q524.177 48.5399 524.024 51.9676Q523.948 55.3953 523.948 58.8992Q524.024 61.2606 524.558 63.3172Q525.015 65.1453 526.538 66.6688Q528.671 68.5731 531.718 68.5731Q536.974 67.2781 541.696 64.4598Q546.647 61.4891 551.37 58.5945L551.979 58.2137L552.589 58.5184Q554.112 59.2039 554.798 60.7274L554.95 60.9559L554.95 63.0125L554.569 63.3934Q551.903 66.2117 548.742 68.4969Q545.581 70.782 542.077 72.3817Q539.411 73.6004 536.593 74.5906Q533.622 75.7332 530.194 75.7332L530.118 75.7332L530.042 75.657ZM613.146 33.534Q614.821 32.2391 616.878 32.2391Q617.563 30.2586 617.868 28.1258Q613.983 29.116 609.413 29.5731Q604.614 30.1063 600.806 30.868L599.206 37.7996Q602.405 36.9617 606.214 35.9715Q610.175 34.9813 613.146 33.534ZM572.698 46.8641Q575.745 44.2742 577.649 41.2274Q579.478 38.1043 579.325 33.991L579.021 33.2293L578.259 33.1531Q575.745 34.2957 573.155 35.2859L572.698 46.8641ZM614.517 53.8719Q615.354 52.8055 615.964 51.7391Q616.573 50.5965 616.726 49.1492Q615.964 48.9207 614.974 49.0731Q613.983 49.5301 613.298 50.2918L613.222 51.1297Q613.679 52.577 614.517 53.8719ZM597.302 18.9852Q596.312 19.2137 595.397 19.4422L595.017 19.5184L594.56 19.366Q593.036 18.6805 592.351 17.157L592.274 17.0047L592.046 15.7098L592.122 15.5574Q592.351 13.7293 593.874 12.6629L594.103 12.5106L594.331 12.4344Q599.282 11.2156 605.224 9.46368Q611.317 7.63556 617.03 7.63556L617.106 7.63556L617.183 7.71173Q620.991 8.01642 623.429 10.9109Q625.257 13.0438 625.409 15.9383L625.485 15.9383L625.485 23.9363Q625.485 23.6317 625.485 23.2508L625.638 22.1844L625.638 21.8035L625.638 21.575L625.714 21.3465L625.714 21.118L625.714 20.9656L625.714 20.8133Q625.638 21.8797 625.485 23.9363Q625.409 23.9363 625.409 23.9744Q625.409 24.0125 625.409 24.0125L625.257 25.8406Q625.333 25.3074 625.409 24.4695Q625.104 27.4402 624.647 30.4109Q624.19 33.7625 622.515 36.657L622.438 36.9617L622.21 37.1141Q621.067 37.952 619.315 37.8758L618.858 38.5613L618.554 38.7137Q614.212 41.075 608.575 42.7508Q603.015 44.3504 597.987 44.9598L597.759 45.0359L597.683 44.9598Q597.073 48.0828 596.692 51.2059Q596.312 55.0145 596.083 59.1277Q596.159 60.4227 597.073 61.3367Q598.521 62.0223 600.349 61.7938Q602.558 61.3367 605.452 60.2703Q607.585 59.5848 609.185 58.6707Q607.89 56.9188 607.052 55.0906Q605.909 52.577 606.138 49.5301L606.138 49.4539L606.138 49.3016Q606.671 46.7879 608.651 44.8836Q610.556 42.9031 612.841 42.2938Q615.126 41.6844 617.792 42.0652Q620.534 42.4461 622.362 44.4266Q624.647 47.0926 623.886 50.825Q623.2 53.6434 621.753 56.0047Q620.61 57.8328 619.239 59.6609Q621.677 61.9461 624.114 63.7742Q627.009 65.8309 630.36 66.6688L630.894 66.8211L631.198 67.202Q632.036 68.5731 631.808 70.4012L631.808 70.6297L631.731 70.782Q631.046 72.3055 629.522 72.991L629.37 73.0672L628.228 73.2957L627.923 73.2195Q623.353 72.2293 619.696 69.3348Q616.649 66.8973 613.603 64.2313Q610.556 66.2879 606.519 67.5828Q601.796 69.0301 597.454 68.8016L597.378 68.8016Q593.646 68.4969 591.056 65.2977L590.979 65.2215L590.903 65.1453Q588.694 61.5652 589.075 56.9949Q589.532 50.0633 590.827 43.4363Q592.122 36.9617 593.569 30.4871L593.417 28.8875L593.646 28.5067Q595.093 26.0692 595.778 23.4031Q596.388 21.1942 597.302 18.9852ZM603.015 17.5379Q603.624 18.2234 603.929 19.0613L604.005 19.2899L604.005 21.1942L603.319 23.5555Q607.737 22.9461 610.632 22.4129Q614.136 21.8035 617.868 21.6512L618.325 21.575L618.325 16.6238L617.563 15.1766Q616.04 14.5672 614.06 14.7195Q609.946 15.7859 604.767 17.0809Q603.853 17.3094 603.015 17.5379ZM569.499 72.2293L566.985 70.8582L566.757 70.4012Q565.69 67.202 565.386 63.8504Q565.005 60.4988 565.233 56.9188L566.071 35.743L566.071 25.9168L565.919 24.241L566.071 23.9363Q566.757 22.4129 568.28 21.7274L568.509 21.6512L570.413 21.6512L570.642 21.7274Q572.47 22.3367 573.079 24.1649L573.231 24.3934L573.231 26.9832Q574.907 25.3074 576.507 23.6317Q578.868 21.118 580.163 18.1473Q580.544 17.2332 580.544 16.1668L578.64 16.0906Q574.679 17.0809 571.175 19.1375Q567.29 21.3465 563.481 23.2508L562.872 23.4793L562.339 23.2508Q560.815 22.5652 560.13 21.0418L560.054 20.8895L559.825 19.4422L560.892 17.0047L561.196 16.7762Q565.69 13.8817 570.337 11.4442Q575.212 8.85431 580.925 8.85431L581.001 8.85431L581.001 8.93048Q584.048 9.08282 586.028 11.5203L586.104 11.5203L586.104 11.5965Q588.085 14.4149 587.552 17.9949L587.552 18.0711Q586.866 21.0418 585.343 23.6317Q584.276 25.3836 582.981 27.1356Q583.743 27.5926 584.353 28.3543Q586.028 30.3348 586.181 32.8484Q586.333 34.9051 586.333 37.2664L586.333 37.3426L586.333 37.4188Q585.876 41.9891 583.134 45.7977Q580.62 49.3777 576.888 52.5008Q575.136 54.4813 572.546 54.3289L572.317 61.7176Q572.546 65.3738 573.308 68.8777L573.384 69.3348L573.231 69.7156Q572.546 71.2391 571.022 71.9246L570.87 72.0008L569.499 72.2293Z">
</path>
</g>
</svg>
