<svg xmlns="http://www.w3.org/2000/svg" xmlns:xlink="http://www.w3.org/1999/xlink" width="800" height="350" viewBox="0 0 800 350" fill="none">
<g >
<path     fill="#FFFFFF"  d="M143.355 207.373Q141.375 206.383 140.08 204.707Q138.861 203.184 137.947 201.432Q137.109 199.832 136.271 198.156Q135.51 196.557 134.52 194.957L134.443 194.805L134.367 194.652Q133.758 192.748 133.072 190.691Q132.234 188.559 131.701 186.426Q131.168 184.369 130.635 182.236Q130.102 180.027 129.797 177.818L129.721 177.438L131.016 175.076L131.244 174.848Q131.93 174.391 132.691 174.314Q133.301 174.238 133.986 174.238L134.215 174.238L134.443 174.238Q135.129 174.543 135.814 175.229Q136.5 175.914 136.805 176.6L136.805 176.752L136.805 176.904Q137.262 180.104 138.176 183.227Q139.166 186.426 140.232 189.549Q141.375 192.672 142.898 195.566Q144.498 198.461 146.479 201.127L148.078 202.803L148.078 204.936L148.002 205.164Q147.697 205.85 147.012 206.535Q146.326 207.221 145.641 207.525L145.412 207.602L143.66 207.602L143.355 207.373ZM104.66 204.783Q103.822 204.631 103.137 204.479Q102.299 204.326 101.461 203.793Q100.471 203.26 99.8613 202.422Q99.252 201.584 99.0234 200.518Q98.8711 199.68 98.8711 198.766L98.8711 198.613L98.8711 198.385Q100.014 194.271 102.451 190.768Q104.736 187.416 107.174 184.217Q109.611 181.094 112.125 177.895Q113.725 175.914 115.248 174.01Q112.582 174.619 109.992 175.686Q106.336 177.209 102.604 178.656Q99.0234 180.104 95.4434 181.855Q91.7109 183.607 87.9785 184.75L87.5977 184.826L87.1406 184.75Q86.4551 184.445 85.7695 183.76Q85.084 183.074 84.7793 182.389L84.7031 182.16L84.7031 180.408L84.8555 180.18Q85.4648 178.656 86.8359 177.971Q87.75 177.514 88.5879 177.133Q89.4258 176.6 90.3398 176.143L90.416 176.143Q93.6152 174.771 96.8906 173.4Q100.09 172.029 103.213 170.658Q106.412 169.287 109.688 168.068Q113.115 166.926 116.771 166.621L116.848 166.621L121.875 166.621L124.465 168.373L125.227 169.668L125.227 172.029L125.15 172.334Q123.17 176.143 120.199 179.342Q117.305 182.312 114.867 185.664Q112.354 188.939 109.916 192.291Q108.088 194.729 106.793 197.623Q109.002 197.166 111.135 196.404Q113.725 195.414 116.391 194.424Q119.133 193.357 121.875 192.596Q124.693 191.758 127.512 191.301L127.664 191.301L130.102 191.301L130.33 191.301Q131.016 191.605 131.701 192.291Q132.387 192.977 132.691 193.662L132.691 193.891L132.691 195.871L132.615 196.176Q132.158 196.938 131.625 197.471Q131.092 198.004 130.33 198.461L130.025 198.613L128.197 198.613L127.74 198.461Q124.998 199.07 122.408 199.908Q119.666 200.746 116.924 201.812Q114.182 202.955 111.211 203.793Q108.164 204.631 104.965 204.783L104.812 204.859L104.66 204.783ZM126.598 158.242Q123.551 157.328 120.504 156.414Q117.457 155.576 114.486 154.434Q111.592 153.367 108.545 152.148Q105.574 150.93 102.68 149.711L102.299 149.559L102.07 149.254Q101.613 148.568 101.537 147.807Q101.461 147.197 101.461 146.512L101.461 146.283L101.461 146.055Q101.766 145.369 102.451 144.684Q103.137 143.998 103.822 143.693L104.051 143.617L106.184 143.617L106.336 143.693Q109.307 144.684 112.277 145.902Q115.096 147.121 117.99 148.188Q120.809 149.178 123.779 149.863Q126.979 150.549 129.873 151.996L130.025 152.148L130.178 152.301Q131.016 153.139 131.016 154.205L131.016 155.5L131.016 155.729Q130.787 156.566 130.025 157.252Q129.34 157.938 128.654 158.242L128.426 158.242L126.75 158.242L126.598 158.242ZM200.256 211.486Q199.57 211.182 198.885 210.496Q198.199 209.811 197.895 209.125L197.895 208.896L197.895 206.916L197.895 206.688Q198.352 205.393 198.656 204.098Q198.961 202.803 199.113 201.355Q199.266 199.832 199.494 198.309Q199.723 196.938 200.027 195.566L200.027 192.824L200.18 192.672L200.18 190.387L200.332 190.234L200.332 187.645L200.484 187.492L200.484 181.855L200.637 181.703L200.637 172.867L200.789 172.715L200.789 162.965L200.637 162.812L200.637 159.461L195.457 159.461L195.305 159.613L193.781 159.613Q193.02 163.117 191.877 166.545Q190.582 170.277 189.363 174.086Q188.145 177.895 187.23 181.703Q186.316 185.436 185.707 189.32L185.707 191.91L185.555 192.062L185.555 194.043L185.402 194.195L185.402 197.775L185.402 198.004Q185.098 198.689 184.412 199.375Q183.727 200.061 183.041 200.365L182.812 200.441L181.137 200.441L180.908 200.365Q180.223 200.061 179.537 199.375Q178.852 198.689 178.547 198.004L178.547 197.928L178.395 197.09L178.395 193.129L178.547 192.977L178.547 190.996L178.699 190.844L178.699 189.168L178.699 189.016Q179.309 185.207 180.07 181.322Q180.832 177.361 181.975 173.553Q183.117 169.82 184.412 166.012Q185.479 163.117 186.24 160.07L185.631 160.07L182.127 160.68L180.984 160.68L180.832 160.832L178.852 160.832L170.854 162.051L169.254 162.051L167.578 162.508L164.531 162.508L162.246 161.289L162.018 161.061Q161.561 160.375 161.484 159.613Q161.332 159.004 161.332 158.318L161.332 158.09L161.408 157.861Q161.713 157.176 162.398 156.49Q163.084 155.805 163.77 155.5L163.998 155.5L167.273 155.5L168.949 155.043L170.701 155.043Q171.539 154.891 172.453 154.738Q173.367 154.586 174.357 154.357Q175.5 154.053 176.719 153.977Q177.709 153.9 178.547 153.748L178.699 153.672L179.766 153.672L179.918 153.52L181.822 153.52L185.326 152.91L186.621 152.91L186.773 152.758L188.449 152.758L188.602 152.605L192.41 152.605L192.562 152.453L194.238 152.453L194.391 152.301L200.027 152.301L200.18 152.148L217.318 152.148L217.471 152.301L219.604 152.301L219.756 152.453L221.279 152.453L221.508 152.529Q222.27 152.834 223.184 152.986L225.316 153.291Q226.916 153.52 227.982 154.662L228.059 154.738L228.135 154.814Q228.592 155.5 228.668 156.262Q228.82 156.871 228.82 157.557L228.82 157.785L228.744 158.014Q228.439 158.699 227.754 159.385Q227.068 160.07 226.383 160.375L226.154 160.375L224.25 160.375L220.898 159.613L218.689 159.613L218.537 159.461L216.404 159.461L216.252 159.309L207.645 159.309L207.645 161.746L207.797 161.898L207.797 173.781L207.645 173.934L207.645 182.77L207.492 182.922L207.492 188.559L207.34 188.711L207.34 191.301L207.188 191.453L207.188 193.738L207.035 193.891L207.035 195.795L205.969 202.041L205.969 203.564L205.969 203.641Q205.816 204.859 205.512 206.002Q205.207 206.992 205.055 207.982Q204.826 209.658 203.531 210.725L203.455 210.801L203.455 210.877Q202.77 211.334 202.008 211.41Q201.398 211.562 200.713 211.562L200.484 211.562L200.256 211.486ZM165.75 192.52Q165.064 192.215 164.379 191.529Q163.693 190.844 163.389 190.158L163.312 189.93L163.312 187.949L163.389 187.721Q164.303 184.979 165.369 182.312Q166.359 179.57 167.502 176.98Q168.645 174.391 169.711 171.801Q170.854 168.982 173.215 166.697L173.291 166.545L174.205 166.012L176.414 166.012L176.643 166.012Q177.328 166.316 178.014 167.002Q178.699 167.688 179.004 168.373L179.004 168.602L179.004 170.506L178.775 170.887Q177.023 173.02 176.033 175.533Q174.891 178.199 173.672 180.789Q172.453 183.379 171.615 186.045Q170.625 188.863 169.406 191.377L169.254 191.682L168.949 191.91Q168.264 192.367 167.502 192.443Q166.893 192.52 166.207 192.52L165.979 192.52L165.75 192.52ZM222.803 190.463Q220.594 188.711 219.299 186.273Q218.232 184.141 216.938 182.008Q215.643 179.875 214.271 177.856Q212.9 175.838 211.377 173.934L211.148 173.553L211.148 171.648L211.148 171.42Q211.453 170.734 212.139 170.049Q212.824 169.363 213.51 169.059L213.738 169.059L215.871 169.059L216.252 169.287Q218.385 170.963 219.832 173.324Q221.127 175.457 222.498 177.438Q223.869 179.57 225.012 181.779Q226.154 183.836 227.525 185.969L227.754 186.273L227.754 188.102L227.678 188.33Q227.373 189.016 226.688 189.701Q226.002 190.387 225.316 190.691L225.088 190.691L223.184 190.691L222.803 190.463ZM198.961 150.32Q197.666 149.711 196.143 149.33Q194.543 148.873 193.096 148.492Q191.496 148.111 190.049 147.654Q188.221 147.045 186.773 145.445L186.697 145.369L186.621 145.293Q186.164 144.607 186.088 143.846Q186.012 143.236 186.012 142.551L186.012 142.322L186.012 142.094Q186.316 141.408 187.002 140.723Q187.688 140.037 188.373 139.732L188.602 139.656L190.506 139.656L190.887 139.961Q192.029 140.875 193.248 141.18Q194.848 141.561 196.447 142.018Q198.047 142.475 199.494 142.855Q201.322 143.312 202.922 144.531L203.074 144.684L203.227 144.836Q203.684 145.521 203.76 146.283Q203.836 146.893 203.836 147.578L203.836 147.807L203.836 148.035Q203.531 148.721 202.846 149.406Q202.16 150.092 201.475 150.396L201.246 150.473L199.189 150.473L198.961 150.32ZM265.383 183.836Q265.916 183.455 266.449 183.15Q267.973 182.465 269.268 181.627Q270.486 180.865 271.629 179.875L269.115 180.18L266.982 180.18L266.449 180.18Q265.84 182.008 265.383 183.836ZM264.088 189.701Q263.936 190.539 263.707 191.377Q263.021 194.424 262.641 197.623Q262.26 201.051 260.965 204.174L260.812 204.555L260.508 204.783Q259.822 205.24 259.061 205.316Q258.451 205.469 257.766 205.469L257.537 205.469L257.309 205.393Q256.623 205.088 255.938 204.402Q255.252 203.717 254.947 203.031L254.871 202.803L254.871 201.127L254.947 200.975Q255.709 196.252 256.547 191.453Q257.385 186.502 258.68 181.779Q259.975 177.133 261.346 172.486Q262.793 167.688 265.459 163.498L265.535 163.422L265.688 163.346Q266.525 162.508 267.592 162.508L269.268 162.508L270.791 163.879L271.4 163.879Q272.162 163.727 273 163.498L274.828 163.041Q275.818 162.812 276.809 162.66Q277.799 162.508 278.713 162.355L278.865 162.355L280.389 162.355L280.541 162.203L284.807 162.203L284.883 162.203Q286.102 162.355 287.244 162.812Q288.463 163.27 289.453 164.031Q290.367 164.793 291.281 165.783L291.357 165.859L291.434 166.012Q291.967 166.85 292.31 167.84Q292.652 168.83 292.805 169.82L292.805 169.973L292.805 175.762L292.195 179.723L292.195 182.465L292.043 182.617L292.043 189.473L292.195 189.625L292.195 192.062L292.348 192.215L292.348 194.576L292.5 194.729L292.5 203.26L292.5 203.412Q292.348 204.25 292.271 205.088Q292.195 206.611 290.977 207.602L290.9 207.678L290.824 207.678Q290.062 208.135 289.377 208.211Q288.768 208.363 288.082 208.363L287.854 208.363L287.625 208.287Q286.939 207.982 286.254 207.297Q285.568 206.611 285.264 205.926L285.188 205.697L285.188 202.803L285.34 202.65L285.34 195.795L285.188 195.643L285.188 193.281L285.035 193.129L285.035 190.691L284.883 190.539L284.883 190.006Q284.883 190.006 284.54 190.12Q284.197 190.234 283.969 190.311L283.74 190.387L276.732 190.387L276.58 190.539L272.924 190.539L268.506 191.148L266.525 191.148L264.24 189.854L264.088 189.701ZM243.979 186.121Q243.293 185.816 242.607 185.131Q241.922 184.445 241.617 183.76L241.617 183.531L241.617 181.627L241.693 181.322Q243.445 177.971 245.273 174.619Q247.102 171.344 249.234 168.221Q251.291 165.25 253.043 162.051Q254.109 159.918 255.328 157.785Q254.49 158.014 253.652 158.166Q251.9 158.547 250.148 159.004Q248.473 159.461 246.797 159.918Q244.969 160.375 242.988 160.527L242.607 160.604L240.322 159.309L240.094 159.08Q239.637 158.395 239.561 157.633Q239.484 157.023 239.484 156.338L239.484 156.109L239.484 155.881Q239.789 155.195 240.475 154.51Q241.16 153.824 241.846 153.52L241.998 153.52L242.074 153.52Q244.512 153.062 246.911 152.529Q249.311 151.996 251.672 151.387Q254.109 150.777 256.623 150.168Q258.832 149.711 260.812 149.025Q261.65 147.73 262.488 146.359Q263.479 144.76 264.316 143.274Q265.154 141.789 265.916 140.113Q266.906 138.133 268.734 136.914L269.039 136.609L270.943 136.609L271.172 136.686Q271.857 136.99 272.543 137.676Q273.229 138.361 273.533 139.047L273.609 139.275L273.609 141.256L272.162 143.693Q271.553 144.684 271.096 145.75Q270.562 146.816 269.877 147.883L273.99 147.273L275.666 147.273L275.818 147.121L277.799 147.121L277.951 146.969L279.779 146.969L279.932 146.816L296.156 146.816L296.309 146.969L298.441 146.969L298.594 147.121L300.117 147.121L300.346 147.273Q300.955 147.502 301.641 147.578Q302.631 147.654 303.545 147.807Q304.916 148.035 305.83 149.178L305.83 149.254L305.906 149.254Q306.363 149.939 306.439 150.701Q306.516 151.311 306.516 152.072L306.516 152.301L306.516 152.529Q306.211 153.215 305.525 153.9Q304.84 154.586 304.154 154.891L303.926 154.891L302.021 154.891L299.736 154.281L297.527 154.281L297.375 154.129L295.242 154.129L295.09 153.977L280.998 153.977L280.846 154.129L279.018 154.129L278.865 154.281L276.885 154.281L276.732 154.434L274.219 154.434Q272.924 154.738 271.629 154.814Q270.41 154.891 269.191 155.119Q267.82 155.348 266.449 155.424Q265.688 155.5 265.002 155.957Q262.641 159.461 260.584 163.117Q258.451 167.078 256.09 170.734Q253.729 174.391 251.672 178.199Q249.539 182.236 246.721 185.664L246.264 186.121L244.207 186.121L243.979 186.121ZM284.883 183.455L284.883 181.551L285.035 181.398L285.035 179.57L285.645 175.609L285.645 170.506Q285.492 170.201 285.264 169.896Q284.959 169.668 284.654 169.439L284.045 169.211L281.607 169.211L281.455 169.363L279.094 169.363L272.086 170.887L270.029 170.887L269.496 170.582Q269.42 170.811 269.42 170.963Q269.039 171.877 268.658 172.867Q268.582 172.943 268.582 173.172L268.963 173.172L276.58 172.258L282.293 172.258L282.598 172.334Q283.359 172.791 284.045 173.477Q284.73 174.162 285.188 174.924L285.34 175.229L285.34 177.59L285.111 177.895Q284.197 179.418 282.674 180.332Q281.531 181.094 280.465 181.779Q279.475 182.465 278.408 183.379L284.807 183.379L284.883 183.455ZM372.404 209.582Q370.881 208.896 370.195 207.373L370.043 207.145L370.043 205.088L370.119 204.859Q372.557 198.08 375.68 191.529Q378.65 185.359 379.717 178.809L378.955 177.209Q377.051 176.066 374.461 176.523Q372.328 176.98 370.424 177.59Q368.291 178.199 365.93 178.199L365.854 178.199L365.777 178.199Q363.949 177.971 362.883 176.447L362.807 176.371L362.73 176.219Q362.121 174.848 362.35 173.248L362.35 172.867L362.654 172.562Q366.006 168.525 369.891 164.793Q373.775 161.137 377.432 157.633L377.812 157.328L379.869 157.328L380.098 157.404Q381.621 158.09 382.307 159.613L382.383 159.842L382.383 161.898L382.23 162.279Q380.25 165.174 377.508 167.459Q376.441 168.449 375.299 169.516Q376.822 169.439 378.422 169.516L378.498 169.516Q382.078 169.82 384.516 172.715Q386.115 174.619 386.572 177.057Q387.029 179.266 386.801 181.703L386.801 181.855L386.801 182.008Q384.744 188.787 381.773 195.414Q378.803 201.889 376.213 208.363L376.137 208.744L375.832 208.973Q374.613 209.887 372.785 209.658L372.557 209.658L372.404 209.582ZM344.678 203.641Q343.154 202.955 342.469 201.432L342.393 201.203L341.098 180.789L341.098 174.467L334.547 175.381L334.242 179.266L334.242 188.787Q334.852 191.758 335.309 194.729L335.385 195.109L335.232 195.49Q334.547 197.014 333.023 197.699L332.795 197.852L330.814 197.852L328.529 196.023L328.453 195.566Q327.691 192.443 327.234 189.092L327.234 189.016L327.234 179.113L327.387 176.219Q325.254 176.6 323.197 176.98Q320.684 177.438 318.094 177.895L317.713 177.971L317.332 177.818Q315.809 177.133 315.123 175.609L315.047 175.381L315.047 173.324L317.104 170.963L317.484 170.887Q320.379 170.125 323.426 169.82Q325.787 169.516 328.148 169.059Q328.301 167.078 328.605 165.25Q328.91 162.584 330.51 160.299L330.662 160.07L330.814 159.918Q332.186 159.08 334.014 159.309L334.166 159.309L334.318 159.385Q335.994 159.994 336.68 161.594L336.832 161.822L336.832 163.727L336.604 164.031Q335.385 165.936 335.232 168.221L340.869 167.535Q340.717 164.107 342.012 161.137L342.164 160.832L342.393 160.604Q343.611 159.689 345.363 159.918L345.592 159.918L345.744 159.994Q347.268 160.68 347.953 162.203L348.105 162.432L348.105 166.85L353.361 166.24L353.666 166.393Q355.189 167.078 355.875 168.602L356.027 168.83L356.027 170.887L353.971 173.172L348.258 173.857L348.258 180.637Q348.486 185.512 348.867 190.539Q349.324 195.643 349.324 200.898L349.324 201.203L349.172 201.432Q348.486 202.955 346.963 203.641L346.734 203.793L344.906 203.793L344.678 203.641ZM323.273 159.994Q321.75 159.309 321.064 157.785L320.988 157.557L320.988 155.652L322.055 153.748L322.588 153.672Q329.215 152.301 336.07 151.539Q342.773 150.777 349.705 150.32L350.01 150.244L350.314 150.396Q351.838 151.082 352.523 152.605L352.676 152.834L352.676 154.967L352.523 155.195Q351.838 156.719 350.314 157.404L350.086 157.48L348.486 157.48L347.496 157.404Q341.555 158.014 335.842 158.623Q329.9 159.309 323.959 160.07L323.578 160.146L323.273 159.994ZM359.455 155.729Q357.932 155.043 357.246 153.52L357.094 153.291L357.094 151.234L357.551 150.854Q361.588 146.664 366.539 143.846Q371.338 141.104 376.061 137.904L376.441 137.676L378.346 137.676L378.574 137.828Q380.098 138.514 380.783 140.037L380.859 140.266L380.859 142.551L380.402 142.932Q376.061 146.664 371.109 149.482Q366.387 152.148 362.045 155.576L361.664 155.805L359.684 155.805L359.455 155.729ZM465.981 158.471Q464.458 157.785 463.772 156.262L463.696 156.033L463.696 153.977L464.382 152.225Q462.325 152.758 460.497 153.139Q457.45 153.824 454.099 153.596Q451.204 153.443 449.3 150.777Q448.157 149.254 448.157 147.273L448.157 147.197L448.157 147.121Q448.462 143.998 450.366 141.484Q452.118 139.199 454.175 137.219Q455.851 135.467 458.364 135.924L458.517 135.924L458.669 136Q460.192 136.686 460.878 138.209L460.954 138.438L460.954 140.57L460.497 141.027Q458.897 142.322 457.374 143.998Q456.308 145.141 455.622 146.512Q456.612 146.74 457.755 146.588Q461.183 145.826 464.61 144.836Q468.343 143.77 472.38 143.77L472.685 143.77L472.913 143.922Q474.437 144.607 475.122 146.131L475.274 146.359L475.274 148.34L473.675 150.473L473.446 150.473Q472.532 151.92 471.847 153.443Q470.933 155.652 469.562 157.557L469.485 157.709L469.333 157.861Q468.114 158.775 466.362 158.547L466.134 158.547L465.981 158.471ZM457.146 170.125L457.069 170.277Q455.546 172.258 453.413 173.705Q453.337 173.705 453.261 173.781L457.146 173.629L457.146 171.572L457.146 170.125ZM457.298 167.688L457.374 164.564L457.146 164.107Q455.774 163.27 454.022 163.27L449.528 163.27Q446.938 163.422 444.577 163.803Q442.597 164.107 440.616 164.641Q440.54 165.174 440.464 165.631Q443.663 165.326 446.938 165.25Q450.671 165.098 454.327 165.098L454.556 165.098L454.784 165.174Q456.612 165.783 457.298 167.688ZM441.987 181.018Q440.692 180.408 439.854 179.189L439.778 179.113L439.702 178.961Q439.093 177.59 439.321 175.99L439.321 175.609L439.55 175.381Q440.692 173.781 442.292 172.562L437.95 172.943Q437.265 175.229 436.731 177.666Q436.274 179.723 436.122 181.855Q439.017 181.322 441.987 181.018ZM451.661 190.006L451.737 187.492L449.071 187.492L445.11 187.797L444.958 190.387L446.481 190.387L451.661 190.006ZM454.327 212.324Q452.651 211.486 452.042 209.734L451.966 209.658L451.509 206.84L451.509 199.375L451.585 197.242L449.985 197.242L444.349 197.547L443.968 205.545Q444.501 207.373 444.501 209.43L444.501 209.734L444.425 209.963Q443.739 211.486 442.216 212.172L441.987 212.324L440.159 212.324L439.854 212.172Q438.255 211.334 437.417 209.734L437.341 209.506L436.808 202.727L437.188 198.004Q432.313 198.309 427.667 199.223Q422.64 200.213 417.612 200.975L417.231 201.051L416.851 200.898Q415.327 200.213 414.642 198.689L414.489 198.461L414.489 196.633L414.642 196.404Q415.327 194.881 416.851 194.195L417.003 194.119L417.079 194.119Q422.487 192.9 427.896 191.986Q432.694 191.225 437.722 190.768L437.95 188.559L434.142 189.244L433.761 189.168Q431.704 188.406 429.952 186.883L429.8 186.73L429.724 186.578Q428.657 184.826 428.962 182.541Q429.419 176.295 431.247 170.506Q433.151 164.717 435.437 159.004L435.665 158.395L436.427 158.242Q436.808 158.166 437.265 158.09Q436.351 156.033 435.513 153.824Q433.151 155.729 430.638 157.252Q427.21 159.309 422.868 159.232Q420.05 159.156 418.222 156.871L418.146 156.795L418.069 156.795Q416.927 155.043 417.155 152.758L417.155 152.758Q417.765 148.111 420.888 144.455Q423.706 141.027 426.753 137.828L426.829 137.752L426.981 137.676Q428.505 136.533 430.638 136.99L430.79 136.99L430.942 137.066Q432.466 137.752 433.151 139.275L433.228 139.504L433.228 141.637L432.771 142.018Q430.485 143.922 428.353 146.436Q426.296 148.873 424.849 151.311L424.62 151.996Q427.743 151.006 430.333 148.797Q433.38 146.131 437.112 144.76L437.722 144.607L438.179 144.912Q440.007 145.902 440.769 147.654L440.769 147.73Q441.53 149.787 442.521 151.768Q443.587 153.9 444.044 156.414Q444.12 156.566 444.12 156.795Q446.71 156.338 449.376 156.262L449.452 156.262L455.774 156.262L455.851 156.262Q459.659 156.566 462.401 159.385Q464.306 161.213 464.382 163.879Q464.458 166.088 464.458 168.373L464.229 175.609Q464.61 178.123 465.067 180.484Q465.524 182.998 465.524 185.893L465.524 186.197L465.448 186.426Q464.763 187.949 463.239 188.635L463.011 188.711L460.954 188.711L459.583 187.492L458.821 187.492L458.821 189.93L468.724 189.93L468.8 189.93Q471.923 190.234 474.817 190.615Q478.017 190.996 480.835 192.748L481.063 192.9L481.216 193.053Q482.13 194.271 481.901 196.023L481.901 196.252L481.825 196.404Q481.14 197.928 479.616 198.613L479.388 198.766L476.95 198.766L476.722 198.613Q474.894 197.775 472.913 197.547Q470.78 197.318 468.571 197.09L458.745 197.09L458.517 199.451L458.517 206.307Q459.354 207.678 459.126 209.277L459.126 209.582L457.907 211.562L457.755 211.715Q456.536 212.629 454.784 212.4L454.556 212.4L454.327 212.324ZM541.468 207.068Q540.782 206.764 540.097 206.078Q539.411 205.393 539.106 204.707L539.106 204.479L539.106 200.67L539.259 200.518L539.259 198.994L539.411 198.842L539.411 197.471L539.411 197.318Q539.868 194.195 540.478 190.996Q541.087 187.721 541.925 184.674Q542.763 181.779 543.524 178.732Q544.286 175.762 545.048 172.639L545.048 167.992Q544.819 167.23 544.515 166.621Q544.134 165.859 543.677 165.174Q543.22 164.564 542.61 163.879Q541.163 162.965 539.716 162.279Q538.04 161.518 536.364 160.984Q534.765 160.375 532.937 160.07Q531.108 159.766 529.356 159.461L527.376 159.461L527.224 159.309L523.567 159.309Q521.892 164.336 519.987 169.287Q518.083 174.619 516.483 179.951Q514.884 185.359 513.437 190.844Q511.913 196.48 509.323 201.66L509.095 201.965L508.866 202.193Q508.104 202.65 507.343 202.727Q506.733 202.879 506.048 202.879L505.819 202.879L505.591 202.803Q504.905 202.498 504.22 201.812Q503.534 201.127 503.229 200.441L503.153 200.213L503.153 198.156L503.306 197.928Q505.362 193.053 506.81 188.025Q508.181 182.922 509.628 177.895Q511.075 172.867 512.979 167.84Q514.503 163.65 515.95 159.309L514.427 159.309L514.274 159.461L511.989 159.461L511.837 159.613L510.009 159.613L509.856 159.766L508.333 159.766L508.181 159.918L503.763 159.918L501.478 158.699L501.249 158.471Q500.792 157.785 500.716 157.023Q500.563 156.414 500.563 155.729L500.563 155.576L500.64 155.348Q500.868 154.51 501.63 153.824Q502.315 153.139 503.001 152.834L503.229 152.758L507.114 152.758L507.267 152.605L508.79 152.605L508.942 152.453L510.771 152.453L510.923 152.301L513.208 152.301L513.36 152.148L518.464 152.148Q518.845 151.006 519.226 149.863L521.358 143.77Q521.968 142.17 522.806 140.723L522.958 140.418L523.187 140.189Q523.872 139.732 524.634 139.656Q525.243 139.504 525.929 139.504L526.233 139.504L526.538 139.656Q527.3 140.113 527.833 140.646Q528.366 141.18 528.823 141.941L528.899 142.246L528.899 144.455L526.157 152.148L528.29 152.148L528.442 152.301L529.509 152.301L529.585 152.377Q532.099 152.682 534.46 153.139Q536.897 153.596 539.411 154.434Q541.849 155.271 544.058 156.49Q546.343 157.709 548.399 159.613L548.476 159.689L549.771 161.289Q550.456 162.203 550.989 163.231Q551.522 164.26 551.751 165.326Q551.979 166.24 552.132 167.23L552.208 167.383L552.208 172.867L552.132 172.943Q551.675 176.295 550.837 179.342Q549.999 182.236 549.237 185.359Q548.476 188.482 547.562 191.605Q546.724 194.5 546.419 197.623L546.419 199.908L546.267 200.061L546.267 201.584L546.114 201.736L546.114 203.793L544.972 206.23L544.667 206.459Q543.981 206.916 543.22 206.992Q542.61 207.145 541.925 207.145L541.696 207.145L541.468 207.068ZM584.657 153.824Q582.372 153.824 580.925 152.072Q579.935 150.854 580.163 149.102L580.163 148.873L580.239 148.721Q580.925 147.197 582.448 146.512L582.677 146.359L584.505 146.359L584.581 146.436Q586.79 146.816 589.151 146.74Q596.997 145.521 604.995 144.988Q612.993 144.455 620.915 144.15L621.22 144.074L621.524 144.227Q623.048 144.912 623.733 146.436L623.81 146.664L623.81 148.645L623.733 148.873Q623.048 150.396 621.524 151.082L621.296 151.158L620.991 151.158Q613.146 151.311 605.3 151.996Q606.214 152.682 606.671 153.748L606.747 153.977L606.747 155.729L603.853 166.469L603.929 166.469Q606.138 166.012 608.423 166.012Q610.556 166.012 612.688 165.859L634.093 165.859L634.321 165.936Q636.149 166.545 636.759 168.373L636.911 168.602L636.911 170.354L636.759 170.582Q636.073 172.105 634.55 172.791L634.321 172.867L612.765 172.867Q609.642 172.867 606.671 173.172Q604.005 173.477 601.415 173.629Q598.673 181.551 596.388 189.625Q594.026 198.004 593.112 206.688L593.265 208.287L593.112 208.592Q592.427 210.115 590.903 210.801L590.675 210.953L588.847 210.953L588.618 210.801Q587.095 210.115 586.409 208.592L586.333 208.363L585.952 203.869L586.028 203.717Q587.247 195.719 589.456 187.873Q591.437 180.941 593.646 174.162Q589.456 174.771 585.19 175Q580.696 175.305 576.431 176.219L575.897 176.295L574.222 175.381L574.069 175.152Q572.927 173.781 573.155 171.877L573.155 171.572L574.146 169.82L574.755 169.668Q580.163 168.297 585.952 167.84Q591.208 167.383 596.235 167.002Q597.302 163.727 598.14 160.451Q599.13 156.566 600.577 152.758Q600.577 152.605 600.653 152.453Q592.731 153.215 584.733 153.748L584.733 153.824L584.657 153.824ZM614.745 211.486Q611.698 211.182 609.261 209.734Q606.899 208.363 604.767 206.078L604.69 206.002L604.614 205.85Q602.481 202.422 601.948 198.309Q601.339 194.348 601.567 190.234Q601.72 187.188 601.948 184.217Q602.177 180.941 603.472 178.199L603.624 177.818L603.929 177.59Q605.3 176.752 606.976 176.98L607.204 176.98L607.356 177.057Q608.88 177.742 609.565 179.266L609.642 179.494L609.642 181.17L609.642 181.322Q608.88 184.369 608.728 187.797Q608.651 191.225 608.651 194.729Q608.728 197.09 609.261 199.146Q609.718 200.975 611.241 202.498Q613.374 204.402 616.421 204.402Q621.677 203.107 626.399 200.289Q631.351 197.318 636.073 194.424L636.683 194.043L637.292 194.348Q638.815 195.033 639.501 196.557L639.653 196.785L639.653 198.842L639.272 199.223Q636.606 202.041 633.445 204.326Q630.284 206.611 626.78 208.211Q624.114 209.43 621.296 210.42Q618.325 211.562 614.897 211.562L614.821 211.562L614.745 211.486ZM697.849 169.363Q699.524 168.068 701.581 168.068Q702.267 166.088 702.571 163.955Q698.687 164.945 694.116 165.402Q689.317 165.936 685.509 166.697L683.909 173.629Q687.108 172.791 690.917 171.801Q694.878 170.811 697.849 169.363ZM657.401 182.693Q660.448 180.104 662.353 177.057Q664.181 173.934 664.028 169.82L663.724 169.059L662.962 168.982Q660.448 170.125 657.858 171.115L657.401 182.693ZM699.22 189.701Q700.058 188.635 700.667 187.568Q701.276 186.426 701.429 184.979Q700.667 184.75 699.677 184.902Q698.687 185.359 698.001 186.121L697.925 186.959Q698.382 188.406 699.22 189.701ZM682.005 154.814Q681.015 155.043 680.101 155.271L679.72 155.348L679.263 155.195Q677.739 154.51 677.054 152.986L676.978 152.834L676.749 151.539L676.825 151.387Q677.054 149.559 678.577 148.492L678.806 148.34L679.034 148.264Q683.985 147.045 689.927 145.293Q696.021 143.465 701.733 143.465L701.81 143.465L701.886 143.541Q705.694 143.846 708.132 146.74Q709.96 148.873 710.112 151.768L710.188 151.768L710.188 159.766Q710.188 159.461 710.188 159.08L710.341 158.014L710.341 157.633L710.341 157.404L710.417 157.176L710.417 156.947L710.417 156.795L710.417 156.643Q710.341 157.709 710.188 159.766Q710.112 159.766 710.112 159.804Q710.112 159.842 710.112 159.842L709.96 161.67Q710.036 161.137 710.112 160.299Q709.808 163.27 709.351 166.24Q708.894 169.592 707.218 172.486L707.142 172.791L706.913 172.943Q705.771 173.781 704.019 173.705L703.562 174.391L703.257 174.543Q698.915 176.904 693.278 178.58Q687.718 180.18 682.69 180.789L682.462 180.865L682.386 180.789Q681.776 183.912 681.396 187.035Q681.015 190.844 680.786 194.957Q680.862 196.252 681.776 197.166Q683.224 197.852 685.052 197.623Q687.261 197.166 690.155 196.1Q692.288 195.414 693.888 194.5Q692.593 192.748 691.755 190.92Q690.612 188.406 690.841 185.359L690.841 185.283L690.841 185.131Q691.374 182.617 693.354 180.713Q695.259 178.732 697.544 178.123Q699.829 177.514 702.495 177.895Q705.237 178.275 707.065 180.256Q709.351 182.922 708.589 186.654Q707.903 189.473 706.456 191.834Q705.313 193.662 703.942 195.49Q706.38 197.775 708.817 199.604Q711.712 201.66 715.063 202.498L715.597 202.65L715.901 203.031Q716.739 204.402 716.511 206.23L716.511 206.459L716.435 206.611Q715.749 208.135 714.226 208.82L714.073 208.896L712.931 209.125L712.626 209.049Q708.056 208.059 704.399 205.164Q701.353 202.727 698.306 200.061Q695.259 202.117 691.222 203.412Q686.499 204.859 682.157 204.631L682.081 204.631Q678.349 204.326 675.759 201.127L675.683 201.051L675.606 200.975Q673.397 197.395 673.778 192.824Q674.235 185.893 675.53 179.266Q676.825 172.791 678.272 166.316L678.12 164.717L678.349 164.336Q679.796 161.898 680.481 159.232Q681.091 157.023 682.005 154.814ZM687.718 153.367Q688.327 154.053 688.632 154.891L688.708 155.119L688.708 157.023L688.022 159.385Q692.44 158.775 695.335 158.242Q698.839 157.633 702.571 157.48L703.028 157.404L703.028 152.453L702.267 151.006Q700.743 150.396 698.763 150.549Q694.649 151.615 689.47 152.91Q688.556 153.139 687.718 153.367ZM654.202 208.059L651.688 206.688L651.46 206.23Q650.394 203.031 650.089 199.68Q649.708 196.328 649.937 192.748L650.774 171.572L650.774 161.746L650.622 160.07L650.774 159.766Q651.46 158.242 652.983 157.557L653.212 157.48L655.116 157.48L655.345 157.557Q657.173 158.166 657.782 159.994L657.935 160.223L657.935 162.812Q659.61 161.137 661.21 159.461Q663.571 156.947 664.866 153.977Q665.247 153.062 665.247 151.996L663.343 151.92Q659.382 152.91 655.878 154.967Q651.993 157.176 648.185 159.08L647.575 159.309L647.042 159.08Q645.519 158.395 644.833 156.871L644.757 156.719L644.528 155.271L645.595 152.834L645.899 152.605Q650.394 149.711 655.04 147.273Q659.915 144.684 665.628 144.684L665.704 144.684L665.704 144.76Q668.751 144.912 670.731 147.35L670.808 147.35L670.808 147.426Q672.788 150.244 672.255 153.824L672.255 153.9Q671.569 156.871 670.046 159.461Q668.979 161.213 667.685 162.965Q668.446 163.422 669.056 164.184Q670.731 166.164 670.884 168.678Q671.036 170.734 671.036 173.096L671.036 173.172L671.036 173.248Q670.579 177.818 667.837 181.627Q665.323 185.207 661.591 188.33Q659.839 190.311 657.249 190.158L657.021 197.547Q657.249 201.203 658.011 204.707L658.087 205.164L657.935 205.545Q657.249 207.068 655.726 207.754L655.573 207.83L654.202 208.059Z">
</path>
</g>
</svg>
