<svg xmlns="http://www.w3.org/2000/svg" xmlns:xlink="http://www.w3.org/1999/xlink" width="400" height="400" viewBox="0 0 400 400" fill="none">
<path     fill="url(#linear_fill_0_3_0)"  d="M360 0C374 0 381 0 386.35 2.72Q387.226 3.16601 388.064 3.67937Q388.901 4.19273 389.697 4.77028Q390.492 5.34783 391.239 5.98601Q391.986 6.62418 392.681 7.31904Q393.376 8.0139 394.014 8.76116Q394.652 9.50842 395.23 10.3035Q395.807 11.0985 396.321 11.9364Q396.834 12.7744 397.28 13.65C400 19 400 26 400 40L400 200C400 236.75 400 255.12 397.17 269.98Q396.611 272.912 395.942 275.821Q395.274 278.73 394.498 281.612Q393.721 284.494 392.838 287.345Q391.955 290.196 390.966 293.012Q389.977 295.828 388.883 298.605Q387.79 301.383 386.594 304.117Q385.398 306.852 384.1 309.54Q382.803 312.228 381.406 314.865Q380.01 317.503 378.516 320.087Q377.021 322.671 375.432 325.197Q373.843 327.724 372.16 330.189Q370.478 332.654 368.704 335.055Q366.931 337.456 365.069 339.789Q363.208 342.122 361.26 344.384Q359.313 346.646 357.283 348.834Q355.252 351.021 353.142 353.132Q351.031 355.242 348.844 357.273Q346.656 359.303 344.394 361.25Q342.132 363.198 339.799 365.059Q337.466 366.921 335.065 368.694Q332.664 370.468 330.199 372.15Q327.734 373.833 325.207 375.422Q322.681 377.012 320.097 378.506Q317.513 380 314.875 381.396Q312.238 382.793 309.55 384.09Q306.862 385.388 304.127 386.584Q301.393 387.78 298.615 388.873Q295.838 389.967 293.022 390.956Q290.206 391.945 287.355 392.828Q284.504 393.711 281.622 394.488Q278.74 395.264 275.831 395.932Q272.922 396.601 269.99 397.16C255.12 400 236.75 400 200 400L40 400C26 400 19 400 13.65 397.28Q12.7744 396.834 11.9364 396.321Q11.0985 395.807 10.3035 395.23Q9.50842 394.652 8.76116 394.014Q8.0139 393.376 7.31904 392.681Q6.62418 391.986 5.98601 391.239Q5.34784 390.492 4.77028 389.697Q4.19273 388.901 3.67937 388.064Q3.16601 387.226 2.72 386.35C0 381 0 374 0 360L0 40C0 26 0 19 2.72 13.65Q3.16601 12.7744 3.67937 11.9364Q4.19274 11.0985 4.77029 10.3035Q5.34784 9.50842 5.98601 8.76116Q6.62419 8.0139 7.31905 7.31904Q8.01391 6.62418 8.76117 5.98601Q9.50842 5.34783 10.3035 4.77028Q11.0985 4.19273 11.9364 3.67937Q12.7744 3.16601 13.65 2.72C19 0 26 0 40 0L360 0Z">
</path>
<g filter="url(#filter_1_3)">
<path    stroke="url(#linear_border_1_3_0)" stroke-width="18"  stroke-linecap="round"  d="M68.35 317.23C37.8995 294.118 143.921 41.7362 222.6 88.85C291.921 142.236 164.43 198.73 210.61 253.79C243.93 290.73 324.43 233.399 324.43 176.76">
</path>
</g>
<defs>
<linearGradient id="linear_fill_0_3_0" x1="258.5" y1="365" x2="39.5" y2="-62" gradientUnits="userSpaceOnUse">
<stop offset="0" stop-color="#91C8FF"  />
<stop offset="1" stop-color="#91C8FF" stop-opacity="0.5" />
</linearGradient>
<radialGradient id="linear_border_1_3_0" cx="0" cy="0" r="1" gradientTransform="translate(283.7146301269531 317.22718811035156) rotate(-180) scale(130.71485665890245, 117.11360168457031)" gradientUnits="userSpaceOnUse">
<stop offset="0" stop-color="#F7F7F7" stop-opacity="0" />
<stop offset="1" stop-color="#F7F7F7"  />
</radialGradient>
<filter id="filter_1_3" x="49.88324737548828" y="71.16773986816406" width="287.54674530029297" height="261.062255859375" filterUnits="userSpaceOnUse" color-interpolation-filters="sRGB">
<feFlood flood-opacity="0" result="feFloodId_1_3"/>
<feColorMatrix in="SourceAlpha" type="matrix" values="0 0 0 0 0 0 0 0 0 0 0 0 0 0 0 0 0 0 127 0" result="hardAlpha_1_3"/>
<feOffset dx="0" dy="2"/>
<feGaussianBlur stdDeviation="2"/>
<feComposite in2="hardAlpha_1_3" operator="out"/>
<feColorMatrix type="matrix" values="0 0 0 0 0.9686274509803922 0 0 0 0 0.9686274509803922 0 0 0 0 0.9686274509803922 0 0 0 0.5 0"/>
<feBlend mode="normal" in2="feFloodId_1_3" result="dropShadow_1_1_3"/>
<feBlend mode="normal" in="SourceGraphic" in2="dropShadow_1_1_3" result="shape_1_3"/>
</filter>
</defs>
</svg>
